{"title":"The Descendants 2011 DVDScr XVID AC3 HQ Hive-CM8","uid":6961390,"size":1533075340,"categoryP":"video","categoryS":"movies","magnet":"?xt=urn:btih:ddf32156dc2ac72d5914ec0f659fded0b970ab23&amp;dn=The+Descendants+2011+DVDScr+XVID+AC3+HQ+Hive-CM8&amp;tr=udp%3A%2F%2Ftracker.openbittorrent.com%3A80&amp;tr=udp%3A%2F%2Fopen.demonii.com%3A1337&amp;tr=udp%3A%2F%2Ftracker.coppersurfer.tk%3A6969&amp;tr=udp%3A%2F%2Fexodus.desync.com%3A6969","seeders":1,"leechers":0,"uploader":"neon","files":4,"time":1326771454,"description":"Notes\nFile was very nice to begin with. fixed aspect and framerate and added sharpness, brightness and denoise. looks sharp and in sync btw.\n\nPlot\nAn Hawaiian land baron tries to re-connect with his two daughters after\nhis wife is seriously injured in a boating accident.\n\nGeneral Information\nFormat : AVI\nFormat/Info : Audio Video Interleave\nFile size : 1.42 GiB\nDuration : 1h 54mn\nOverall bit rate : 1 765 Kbps\nWriting application : Nandub v1.0rc2\nWriting library : Nandub build 1853/release\n\nVideo Information\nID : 0\nFormat : MPEG-4 Visual\nFormat profile : Advanced Simple@L5\nFormat settings, BVOP : 2\nFormat settings, QPel : Yes\nFormat settings, GMC : No warppoints\nFormat settings, Matrix : Default (H.263)\nMuxing mode : Packed bitstream\nCodec ID : XVID\nCodec ID/Hint : XviD\nDuration : 1h 54mn\nBit rate : 1 500 Kbps\nWidth : 720 pixels\nHeight : 304 pixels\nDisplay aspect ratio : 2.35:1\nFrame rate : 23.976 fps\nColor space : YUV\nChroma subsampling : 4:2:0\nBit depth : 8 bits\nScan type : Progressive\nCompression mode : Lossy\nBits/(Pixel*Frame) : 0.286\nStream size : 1.20 GiB (85%)\nWriting library : XviD 1.2.1 (UTC 2008-12-04)\n\nAudio Information\nID : 1\nFormat : AC-3\nFormat/Info : Audio Coding 3\nMode extension : CM (complete main)\nCodec ID : 2000\nDuration : 1h 54mn\nBit rate mode : Constant\nBit rate : 256 Kbps\nChannel(s) : 2 channels\nChannel positions : Front: L R\nSampling rate : 48.0 KHz\nBit depth : 16 bits\nCompression mode : Lossy\nStream size : 210 MiB (15%)\nAlignment : Split accross interleaves\nInterleave, duration : 42 ms (1.00 video frame)\nInterleave, preload duration : 500 ms","torrent":{"xt":"urn:btih:ddf32156dc2ac72d5914ec0f659fded0b970ab23","amp;dn":"The+Descendants+2011+DVDScr+XVID+AC3+HQ+Hive-CM8","amp;tr":["udp%3A%2F%2Ftracker.openbittorrent.com%3A80","udp%3A%2F%2Fopen.demonii.com%3A1337","udp%3A%2F%2Ftracker.coppersurfer.tk%3A6969","udp%3A%2F%2Fexodus.desync.com%3A6969"],"infoHash":"ddf32156dc2ac72d5914ec0f659fded0b970ab23","infoHashBuffer":{"type":"Buffer","data":[221,243,33,86,220,42,199,45,89,20,236,15,101,159,222,208,185,112,171,35]},"announce":[],"urlList":[]}}